<?xml version="1.0" encoding="UTF-8" standalone="no"?>
<!DOCTYPE svg PUBLIC "-//W3C//DTD SVG 1.1//EN" "http://www.w3.org/Graphics/SVG/1.1/DTD/svg11.dtd">
<svg width="100%" height="100%" viewBox="0 0 198 198" version="1.1" xmlns="http://www.w3.org/2000/svg" xmlns:xlink="http://www.w3.org/1999/xlink" xml:space="preserve" xmlns:serif="http://www.serif.com/" style="fill-rule:evenodd;clip-rule:evenodd;stroke-linejoin:round;stroke-miterlimit:2;">
    <path d="M186.696,83.902L40.775,83.902L177.248,34.195C178.494,33.741 179.509,32.811 180.069,31.609C180.629,30.407 180.689,29.032 180.235,27.786L171.312,3.289C170.367,0.693 167.497,-0.639 164.903,0.302L9.035,57.074C7.789,57.528 6.775,58.458 6.214,59.66C5.654,60.862 5.594,62.237 6.048,63.483L14.97,87.979C15.129,88.415 15.351,88.807 15.608,89.167L15.608,192.442C15.608,195.204 17.847,197.442 20.608,197.442L186.696,197.442C189.458,197.442 191.696,195.204 191.696,192.442L191.696,88.902C191.696,86.14 189.458,83.902 186.696,83.902ZM166.123,18.262L169.128,26.51L164.466,28.208L166.123,18.262ZM128.872,24.068L148.212,17.024L145.178,35.233L125.838,42.277L128.872,24.068ZM90.245,38.137L109.584,31.093L106.55,49.302L87.211,56.346L90.245,38.137ZM51.617,52.207L70.956,45.163L67.922,63.371L48.584,70.415L51.617,52.207ZM32.328,59.233L29.294,77.441L22.656,79.859L17.156,64.759L32.328,59.233ZM32.876,109.973L25.811,109.973L25.811,93.902L41.959,93.902L32.876,109.973ZM73.986,109.973L53.405,109.973L62.488,93.902L83.07,93.902L73.986,109.973ZM115.097,109.973L94.515,109.973L103.597,93.902L124.18,93.902L115.097,109.973ZM156.208,109.973L135.625,109.973L144.708,93.902L165.291,93.902L156.208,109.973ZM181.696,109.973L176.735,109.973L181.696,101.195L181.696,109.973Z" style="fill:rgb(28,141,255);fill-rule:nonzero;"/>
</svg>
